<svg width="20" height="17" viewBox="0 0 20 17" fill="none" xmlns="http://www.w3.org/2000/svg">
<g id="Group">
<path id="Vector" d="M19.3333 8.32001C19.3333 8.76298 19.0041 9.12908 18.577 9.18702L18.4583 9.19501L0.95825 9.19501C0.475002 9.19501 0.08325 8.80326 0.08325 8.32001C0.08325 7.87703 0.41243 7.51093 0.83952 7.453L0.95825 7.44501L18.4583 7.44501C18.9415 7.44501 19.3333 7.83676 19.3333 8.32001Z" fill="white"/>
<path id="Vector_2" d="M8.63374 14.7284C8.97619 15.0694 8.97738 15.6234 8.63641 15.9659C8.32643 16.2772 7.84039 16.3065 7.49729 16.053L7.39897 15.9685L0.340639 8.94054C0.0283957 8.62964 -8.58307e-06 8.14184 0.255438 7.79875L0.340588 7.70049L7.39892 0.671323C7.74134 0.330322 8.29535 0.331469 8.63636 0.673885C8.94636 0.985172 8.97359 1.47134 8.71872 1.81336L8.63379 1.91132L2.19842 8.32084L8.63374 14.7284Z" fill="white"/>
</g>
</svg>
