<svg width="29" height="30" viewBox="0 0 29 30" fill="none" xmlns="http://www.w3.org/2000/svg">
<g id="Bold / Shopping, Ecommerce / Cart Large">
<g id="Vector">
<path fill-rule="evenodd" clip-rule="evenodd" d="M1.76536 4.12923C1.92109 3.66204 2.42606 3.40956 2.89324 3.56529L3.25512 3.68591C3.99981 3.93411 4.62912 4.14386 5.12398 4.37407C5.64998 4.61877 6.10639 4.92205 6.45247 5.40221C6.79855 5.88237 6.94194 6.41126 7.00774 6.98766C7.04135 7.28202 7.05671 7.61206 7.06372 7.97786H19.7914C22.2346 7.97786 23.4561 7.97786 23.9847 8.77949C24.5133 9.58111 24.0321 10.7039 23.0697 12.9495L22.5602 14.1384C22.1109 15.1868 21.8862 15.711 21.4395 16.0056C20.9929 16.3001 20.4225 16.3001 19.2819 16.3001H7.25174C7.37656 16.9419 7.57348 17.3175 7.85309 17.5972C8.18213 17.9262 8.6441 18.1407 9.51648 18.258C10.4145 18.3787 11.6047 18.3806 13.3113 18.3806H21.6335C22.1259 18.3806 22.5252 18.7799 22.5252 19.2723C22.5252 19.7648 22.1259 20.164 21.6335 20.164H13.246C11.6201 20.164 10.3096 20.164 9.27885 20.0254C8.20873 19.8816 7.3077 19.5738 6.59208 18.8582C5.87647 18.1425 5.56868 17.2415 5.4248 16.1714C5.28622 15.1407 5.28624 13.8301 5.28627 12.2042L5.28627 9.0277C5.28627 8.18002 5.28492 7.61914 5.23592 7.18994C5.18952 6.78353 5.1085 6.58749 5.00575 6.44495C4.90301 6.3024 4.74266 6.16354 4.37177 5.991C3.98009 5.80879 3.44842 5.63015 2.64425 5.36209L2.3293 5.2571C1.86212 5.10138 1.60963 4.59641 1.76536 4.12923ZM9.7446 10.6529C9.25215 10.6529 8.85294 11.0521 8.85294 11.5445C8.85294 12.037 9.25215 12.4362 9.7446 12.4362H13.3113C13.8037 12.4362 14.2029 12.037 14.2029 11.5445C14.2029 11.0521 13.8037 10.6529 13.3113 10.6529H9.7446Z" fill="#9E9E9E"/>
<path d="M9.14992 22.2446C10.1348 22.2446 10.9332 23.043 10.9332 24.0279C10.9332 25.0128 10.1348 25.8112 9.14992 25.8112C8.16501 25.8112 7.36658 25.0128 7.36658 24.0279C7.36658 23.043 8.16501 22.2446 9.14992 22.2446Z" fill="#9E9E9E"/>
<path d="M19.8499 22.2447C20.8348 22.2447 21.6332 23.0431 21.6332 24.028C21.6332 25.0129 20.8348 25.8113 19.8499 25.8113C18.865 25.8113 18.0666 25.0129 18.0666 24.028C18.0666 23.0431 18.865 22.2447 19.8499 22.2447Z" fill="#9E9E9E"/>
</g>
</g>
</svg>
