<svg width="29" height="30" viewBox="0 0 29 30" fill="none" xmlns="http://www.w3.org/2000/svg">
<g id="Bold / Shopping, Ecommerce / Cart Large">
<g id="Vector">
<path fill-rule="evenodd" clip-rule="evenodd" d="M1.76542 4.12923C1.92115 3.66204 2.42612 3.40956 2.8933 3.56529L3.25518 3.68591C3.99987 3.93411 4.62918 4.14386 5.12404 4.37407C5.65004 4.61877 6.10645 4.92205 6.45253 5.40221C6.79861 5.88237 6.942 6.41126 7.00781 6.98766C7.04141 7.28202 7.05677 7.61206 7.06378 7.97786H19.7915C22.2346 7.97786 23.4562 7.97786 23.9848 8.77949C24.5134 9.58111 24.0322 10.7039 23.0698 12.9495L22.5603 14.1384C22.1109 15.1868 21.8863 15.711 21.4396 16.0056C20.9929 16.3001 20.4226 16.3001 19.282 16.3001H7.2518C7.37662 16.9419 7.57354 17.3175 7.85315 17.5972C8.18219 17.9262 8.64416 18.1407 9.51654 18.258C10.4146 18.3787 11.6048 18.3806 13.3113 18.3806H21.6336C22.126 18.3806 22.5252 18.7799 22.5252 19.2723C22.5252 19.7648 22.126 20.164 21.6336 20.164H13.2461C11.6202 20.164 10.3096 20.164 9.27891 20.0254C8.20879 19.8816 7.30776 19.5738 6.59215 18.8582C5.87653 18.1425 5.56874 17.2415 5.42486 16.1714C5.28629 15.1407 5.2863 13.8301 5.28633 12.2042L5.28633 9.0277C5.28633 8.18002 5.28498 7.61914 5.23598 7.18994C5.18958 6.78353 5.10856 6.58749 5.00582 6.44495C4.90307 6.3024 4.74272 6.16354 4.37183 5.991C3.98015 5.80879 3.44848 5.63015 2.64431 5.36209L2.32936 5.2571C1.86218 5.10138 1.60969 4.59641 1.76542 4.12923ZM9.74466 10.6529C9.25221 10.6529 8.853 11.0521 8.853 11.5445C8.853 12.037 9.25221 12.4362 9.74466 12.4362H13.3113C13.8038 12.4362 14.203 12.037 14.203 11.5445C14.203 11.0521 13.8038 10.6529 13.3113 10.6529H9.74466Z" fill="white"/>
<path d="M9.14998 22.2446C10.1349 22.2446 10.9333 23.043 10.9333 24.0279C10.9333 25.0128 10.1349 25.8112 9.14998 25.8112C8.16507 25.8112 7.36664 25.0128 7.36664 24.0279C7.36664 23.043 8.16507 22.2446 9.14998 22.2446Z" fill="white"/>
<path d="M19.85 22.2447C20.8349 22.2447 21.6333 23.0431 21.6333 24.028C21.6333 25.0129 20.8349 25.8113 19.85 25.8113C18.8651 25.8113 18.0666 25.0129 18.0666 24.028C18.0666 23.0431 18.8651 22.2447 19.85 22.2447Z" fill="white"/>
</g>
</g>
</svg>
