<svg width="29" height="30" viewBox="0 0 29 30" fill="none" xmlns="http://www.w3.org/2000/svg">
<g id="user-headset 1">
<path id="Vector" d="M22.7609 24.4515V26.8477H5.69455V24.4515C5.69455 22.0736 7.60882 20.1385 9.96113 20.1385H18.4943C20.8466 20.1385 22.7609 22.0736 22.7609 24.4515ZM9.36571 7.70456C10.8154 6.3311 12.7135 5.65252 14.7037 5.77712C18.4241 6.02056 21.3396 9.29367 21.3396 13.2281C21.3396 14.9246 19.9753 16.3038 18.2971 16.3038H16.0159C15.7845 15.5092 15.0659 14.9246 14.205 14.9246C13.1573 14.9246 12.3087 15.7824 12.3087 16.8415C12.3087 17.9005 13.1573 18.7583 14.205 18.7583C14.715 18.7583 15.1768 18.5523 15.5172 18.2207H18.2971C21.0201 18.2207 23.2359 15.9808 23.2359 13.2281C23.2349 8.28634 19.541 4.17267 14.825 3.86501C12.2992 3.6992 9.90329 4.5666 8.06867 6.30714C6.37436 7.91254 5.35607 10.1371 5.23376 12.4719H7.13286C7.24948 10.648 8.03169 8.96875 9.36571 7.70456ZM17.1669 14.3878H18.4639C18.939 14.3878 19.3542 14.0351 19.4092 13.5578C19.4737 12.9952 19.45 12.4058 19.3229 11.8029C18.902 9.81027 17.3025 8.20295 15.3285 7.79274C11.975 7.09594 9.0149 9.68088 9.0149 12.9501C9.0149 14.3581 9.56386 15.6386 10.4561 16.5846C10.5603 14.5613 12.2016 12.9492 14.2287 12.9492C15.4214 12.9492 16.4719 13.5166 17.1669 14.3869V14.3878Z" fill="white"/>
</g>
</svg>
