<svg width="20" height="20" viewBox="0 0 20 20" fill="none" xmlns="http://www.w3.org/2000/svg">
<g id="link-alt 1" clip-path="url(#clip0_190_82)">
<path id="Vector" d="M6.57991 13.4199C6.09157 12.9324 6.09157 12.1399 6.57991 11.6524C7.06824 11.1641 7.85907 11.1641 8.34741 11.6524C9.45241 12.7574 11.3807 12.7582 12.4857 11.6524L16.6432 7.49491C17.7841 6.35407 17.7841 4.49741 16.6432 3.35657C15.5024 2.21574 13.6457 2.21574 12.5049 3.35657C12.0166 3.84491 11.2257 3.84491 10.7374 3.35657C10.2491 2.86907 10.2491 2.07657 10.7374 1.58907C12.8524 -0.526761 16.2957 -0.526761 18.4107 1.58907C20.5266 3.70491 20.5266 7.14657 18.4107 9.26241L14.2532 13.4199C13.1949 14.4782 11.8057 15.0066 10.4166 15.0066C9.02741 15.0066 7.63741 14.4774 6.57991 13.4199ZM5.42657 19.9974C6.81574 19.9974 8.20491 19.4682 9.26324 18.4107C9.75157 17.9232 9.75157 17.1307 9.26324 16.6432C8.77491 16.1549 7.98407 16.1549 7.49574 16.6432C6.35407 17.7849 4.49741 17.7841 3.35741 16.6432C2.21657 15.5024 2.21657 13.6457 3.35741 12.5049L7.49157 8.37074C8.63324 7.22907 10.4899 7.22907 11.6299 8.37074C12.1182 8.85907 12.9091 8.85907 13.3974 8.37074C13.8857 7.88324 13.8857 7.09074 13.3974 6.60324C11.2816 4.48741 7.83991 4.48741 5.72407 6.60324L1.58907 10.7374C-0.526761 12.8532 -0.526761 16.2949 1.58907 18.4107C2.64741 19.4691 4.03741 19.9974 5.42657 19.9974Z" fill="#9E9E9E"/>
</g>
<defs>
<clipPath id="clip0_190_82">
<rect width="20" height="20" fill="white"/>
</clipPath>
</defs>
</svg>
