<svg width="24" height="24" viewBox="0 0 24 24" fill="none" xmlns="http://www.w3.org/2000/svg">
<g id="Icon=share-alt, Component=Additional Icons" clip-path="url(#clip0_20_3604)">
<path id="Vector" d="M13 3.5C13 3.76522 13.1054 4.01957 13.2929 4.20711C13.4804 4.39464 13.7348 4.5 14 4.5H17.966C17.8924 3.85068 17.6074 3.24354 17.155 2.772L14.871 0.413C14.3714 -0.093452 13.7085 -0.406626 13 -0.471V3.5ZM11 3.5V-0.5H7C5.67441 -0.498412 4.40356 0.028882 3.46622 0.96622C2.52888 1.90356 2.00159 3.17441 2 4.5V14.5C2.00159 15.8256 2.52888 17.0964 3.46622 18.0338C4.40356 18.9711 5.67441 19.4984 7 19.5H13C14.3256 19.4984 15.5964 18.9711 16.5338 18.0338C17.4711 17.0964 17.9984 15.8256 18 14.5V6.5H14C13.2044 6.5 12.4413 6.18393 11.8787 5.62132C11.3161 5.05871 11 4.29565 11 3.5ZM17 23.5H8C7.73478 23.5 7.48043 23.3946 7.29289 23.2071C7.10536 23.0196 7 22.7652 7 22.5C7 22.2348 7.10536 21.9804 7.29289 21.7929C7.48043 21.6054 7.73478 21.5 8 21.5H17C17.7956 21.5 18.5587 21.1839 19.1213 20.6213C19.6839 20.0587 20 19.2956 20 18.5V7.5C20 7.23478 20.1054 6.98043 20.2929 6.79289C20.4804 6.60536 20.7348 6.5 21 6.5C21.2652 6.5 21.5196 6.60536 21.7071 6.79289C21.8946 6.98043 22 7.23478 22 7.5V18.5C21.9984 19.8256 21.4711 21.0964 20.5338 22.0338C19.5964 22.9711 18.3256 23.4984 17 23.5Z" fill="white"/>
</g>
<defs>
<clipPath id="clip0_20_3604">
<rect width="24" height="24" fill="white"/>
</clipPath>
</defs>
</svg>
