<svg width="29" height="29" viewBox="0 0 29 29" fill="none" xmlns="http://www.w3.org/2000/svg">
<g id="Bold / Arrows Action / Logout 2">
<g id="Vector">
<path fill-rule="evenodd" clip-rule="evenodd" d="M9.36243 14.2668C9.36243 14.7593 9.76164 15.1585 10.2541 15.1585L23.2992 15.1585L20.9683 17.1565C20.5944 17.477 20.5511 18.0399 20.8715 18.4138C21.192 18.7877 21.7549 18.831 22.1288 18.5105L26.2899 14.9438C26.4876 14.7744 26.6013 14.5271 26.6013 14.2668C26.6013 14.0065 26.4876 13.7592 26.2899 13.5898L22.1288 10.0231C21.7549 9.70266 21.192 9.74596 20.8715 10.1199C20.5511 10.4938 20.5944 11.0567 20.9683 11.3772L23.2992 13.3752L10.2541 13.3752C9.76164 13.3752 9.36243 13.7744 9.36243 14.2668Z" fill="white"/>
<path d="M17.3874 19.0224C17.3874 18.1875 17.3874 17.7701 17.1871 17.4703C17.1003 17.3404 16.9889 17.229 16.859 17.1422C16.5592 16.9419 16.1417 16.9419 15.3069 16.9419L10.2541 16.9419C8.77673 16.9419 7.5791 15.7442 7.5791 14.2669C7.5791 12.7895 8.77673 11.5919 10.2541 11.5919L15.3068 11.5919C16.1417 11.5919 16.5592 11.5919 16.8591 11.3915C16.9889 11.3048 17.1003 11.1933 17.187 11.0635C17.3874 10.7636 17.3874 10.3462 17.3874 9.51126C17.3874 6.14858 17.3874 4.46723 16.3428 3.42258C15.2981 2.37793 13.617 2.37793 10.2544 2.37793L9.06547 2.37793C5.70279 2.37793 4.02145 2.37793 2.9768 3.42258C1.93214 4.46723 1.93214 6.14858 1.93214 9.51126L1.93214 19.0224C1.93214 22.385 1.93214 24.0664 2.97679 25.1111C4.02144 26.1557 5.70278 26.1557 9.06547 26.1557L10.2544 26.1557C13.617 26.1557 15.2981 26.1557 16.3428 25.1111C17.3874 24.0664 17.3874 22.3851 17.3874 19.0224Z" fill="white"/>
</g>
</g>
</svg>
