<svg width="121" height="126" viewBox="0 0 121 126" fill="none" xmlns="http://www.w3.org/2000/svg">
<g id="Logo">
<g id="Group 34825">
<path id="Vector" d="M41.7769 0.645264C40.5475 0.646679 39.5512 1.65165 39.5498 2.89177V42.2584C39.5512 43.4986 40.5475 44.5035 41.7769 44.5049H96.9815C98.211 44.5035 99.2073 43.4986 99.2086 42.2584V2.89177C99.2073 1.65165 98.211 0.646676 96.9815 0.645264H41.7769Z" fill="#E6E6E6"/>
<path id="Vector_2" d="M77.1281 42.5888H43.3373C42.014 42.5873 40.9417 41.5057 40.9402 40.171V4.46572C40.9417 3.13101 42.014 2.04935 43.3373 2.04785H95.4224C96.7456 2.04934 97.818 3.13099 97.8195 4.46572V21.7181C97.8065 33.2393 88.5503 42.5758 77.1281 42.5888V42.5888Z" fill="white"/>
<path id="Vector_3" d="M63.8913 11.9293H55.8614C55.4379 11.9293 55.0945 11.583 55.0945 11.1558C55.0945 10.7286 55.4379 10.3823 55.8614 10.3823H63.8912C64.3147 10.3823 64.658 10.7286 64.658 11.1558C64.658 11.583 64.3147 11.9293 63.8912 11.9293H63.8913Z" fill="#E6E6E6"/>
<path id="Vector_4" d="M81.8915 15.0926H55.8614C55.4379 15.0926 55.0945 14.7463 55.0945 14.3191C55.0945 13.8919 55.4379 13.5457 55.8614 13.5457H81.8915C82.315 13.5457 82.6584 13.8919 82.6584 14.3191C82.6584 14.7463 82.315 15.0926 81.8915 15.0926Z" fill="#E6E6E6"/>
<path id="Vector_5" d="M81.8915 18.7239H55.8614C55.4379 18.7239 55.0945 18.3776 55.0945 17.9505C55.0945 17.5233 55.4379 17.177 55.8614 17.177H81.8915C82.315 17.177 82.6584 17.5233 82.6584 17.9505C82.6584 18.3776 82.315 18.7239 81.8915 18.7239Z" fill="#E6E6E6"/>
<path id="Vector_6" d="M81.8915 22.3553H55.8614C55.4379 22.3553 55.0945 22.009 55.0945 21.5818C55.0945 21.1546 55.4379 20.8083 55.8614 20.8083H81.8915C82.315 20.8083 82.6584 21.1546 82.6584 21.5818C82.6584 22.009 82.315 22.3553 81.8915 22.3553Z" fill="#E6E6E6"/>
<path id="Vector_7" d="M81.8915 25.9866H55.8614C55.4379 25.9866 55.0945 25.6403 55.0945 25.2132C55.0945 24.786 55.4379 24.4397 55.8614 24.4397H81.8915C82.315 24.4397 82.6584 24.786 82.6584 25.2132C82.6584 25.6403 82.315 25.9866 81.8915 25.9866Z" fill="#E6E6E6"/>
<path id="Vector_8" d="M38.6226 18.2529C37.2526 18.2545 36.1424 19.3743 36.1409 20.7562V64.6218C36.1424 66.0037 37.2526 67.1235 38.6226 67.125H100.136C101.506 67.1235 102.616 66.0037 102.618 64.6218V20.7562C102.616 19.3743 101.506 18.2545 100.136 18.2529H38.6226Z" fill="#E6E6E6"/>
<path id="Vector_9" d="M78.0136 64.9898H40.361C38.8866 64.9881 37.6917 63.7829 37.6901 62.2956V22.5099C37.6917 21.0226 38.8866 19.8173 40.361 19.8157H98.3986C99.8731 19.8173 101.068 21.0226 101.07 22.5099V41.7339C101.055 54.5718 90.7411 64.9753 78.0136 64.9898V64.9898Z" fill="white"/>
<path id="Vector_10" d="M63.2639 30.8263H54.3164C53.8445 30.8263 53.4619 30.4404 53.4619 29.9644C53.4619 29.4884 53.8445 29.1025 54.3164 29.1025H63.2639C63.7358 29.1025 64.1184 29.4884 64.1184 29.9644C64.1184 30.4404 63.7358 30.8263 63.2639 30.8263H63.2639Z" fill="#E6E6E6"/>
<path id="Vector_11" d="M83.3214 34.3514H54.3164C53.8445 34.3514 53.4619 33.9655 53.4619 33.4895C53.4619 33.0136 53.8445 32.6277 54.3164 32.6277H83.3214C83.7933 32.6277 84.1758 33.0136 84.1758 33.4895C84.1758 33.9655 83.7933 34.3514 83.3214 34.3514Z" fill="#E6E6E6"/>
<path id="Vector_12" d="M83.3214 38.3978H54.3164C53.8445 38.3978 53.4619 38.0119 53.4619 37.5359C53.4619 37.0599 53.8445 36.6741 54.3164 36.6741H83.3214C83.7933 36.6741 84.1758 37.0599 84.1758 37.5359C84.1758 38.0119 83.7933 38.3978 83.3214 38.3978Z" fill="#E6E6E6"/>
<path id="Vector_13" d="M83.3214 42.4439H54.3164C53.8445 42.4439 53.4619 42.0581 53.4619 41.5821C53.4619 41.1061 53.8445 40.7202 54.3164 40.7202H83.3214C83.7933 40.7202 84.1758 41.1061 84.1758 41.5821C84.1758 42.0581 83.7933 42.4439 83.3214 42.4439Z" fill="#E6E6E6"/>
<path id="Vector_14" d="M83.3214 46.4903H54.3164C53.8445 46.4903 53.4619 46.1045 53.4619 45.6285C53.4619 45.1525 53.8445 44.7666 54.3164 44.7666H83.3214C83.7933 44.7666 84.1758 45.1525 84.1758 45.6285C84.1758 46.1045 83.7933 46.4903 83.3214 46.4903Z" fill="#E6E6E6"/>
<path id="Vector_15" d="M106.578 48.8788H94.4354C92.0207 48.8788 90.0631 50.8533 90.0631 53.289C90.0631 55.7247 88.1056 57.6992 85.6908 57.6992H45.2095C42.7948 57.6992 40.8372 55.7247 40.8372 53.289V53.289L40.0368 48.8183L40.0888 48.8788L40.0368 48.8183L32.6989 39.3823C32.2118 38.7456 31.4571 38.3759 30.6599 38.3832H16.8986C15.4682 38.3849 14.309 39.5541 14.3073 40.997L14.0231 48.8182H8.82065C4.22528 48.8182 0.5 52.5758 0.5 57.211V111.873C0.5 115.986 3.80588 119.321 7.88388 119.321H106.578C110.653 119.316 113.956 115.984 113.96 111.873V56.3247C113.96 52.2124 110.655 48.8788 106.578 48.8788H106.578Z" fill="url(#paint0_linear_20_3141)"/>
<path id="Vector_16" d="M40.041 48.6161H14.3074V40.7948C14.3091 39.352 15.4683 38.1827 16.8988 38.181H30.66C31.4573 38.1737 32.2119 38.5435 32.6991 39.1801L40.041 48.6161V48.6161Z" fill="#CCCCCC"/>
<g id="Group 34824">
<path id="Vector_17" d="M22.6172 100.045H12.0116C10.5749 100.045 9.41022 98.8699 9.41022 97.4208C9.41022 95.9716 10.5749 94.7969 12.0116 94.7969H22.6172C24.0538 94.795 25.22 95.9683 25.2219 97.4174C25.2237 98.8665 24.0606 100.043 22.6239 100.045H22.6172H22.6172Z" fill="white"/>
<path id="Vector_18" d="M58.6361 108.32H12.0116C10.5749 108.32 9.41022 107.145 9.41022 105.696C9.41022 104.247 10.5749 103.072 12.0116 103.072H58.6361C60.0728 103.07 61.239 104.244 61.2408 105.693C61.2427 107.142 60.0795 108.318 58.6428 108.32H58.6361L58.6361 108.32Z" fill="white"/>
</g>
</g>
</g>
<defs>
<linearGradient id="paint0_linear_20_3141" x1="1" y1="48.3914" x2="123.255" y2="72.5429" gradientUnits="userSpaceOnUse">
<stop stop-color="#1E30F3"/>
<stop offset="1" stop-color="#E21E80"/>
</linearGradient>
</defs>
</svg>
