<svg width="186" height="180" viewBox="0 0 186 180" fill="none" xmlns="http://www.w3.org/2000/svg">
<circle cx="95.5002" cy="90.5" r="70.5" fill="url(#paint0_linear_135_282)"/>
<g clip-path="url(#clip0_135_282)">
<path d="M95.7901 110.245L73.67 119.557C72.9719 119.85 72.2417 119.995 71.519 119.995C70.0882 119.995 68.6845 119.432 67.625 118.375C66.032 116.782 65.5674 114.41 66.4425 112.332L75.7547 90.2099L95.7901 110.245ZM105.845 96.0853L89.9171 80.1578C88.3512 78.5894 86.1141 77.9109 83.9434 78.3362C81.7702 78.7639 79.9584 80.234 79.098 82.2793L77.8172 85.3227L100.685 108.19L103.728 106.909C105.771 106.049 107.243 104.237 107.669 102.064C108.094 99.8884 107.413 97.6537 105.847 96.0878L105.845 96.0853ZM104.832 79.6956C106.626 77.3307 107.62 74.8183 107.787 72.2198C108.21 65.5897 103.374 61.6932 103.17 61.5285C102.113 60.6976 100.586 60.8721 99.7382 61.9268C98.8925 62.9789 99.0621 64.5228 100.107 65.3758C100.23 65.4766 103.136 67.8956 102.88 71.9052C102.777 73.5203 102.115 75.1403 100.918 76.721C100.097 77.8027 100.309 79.3441 101.39 80.1652C101.835 80.5019 102.356 80.6642 102.875 80.6642C103.617 80.6642 104.352 80.3274 104.834 79.6907L104.832 79.6956ZM123.958 94.9692C125.069 94.1875 125.334 92.6535 124.55 91.5423C123.633 90.2419 121.143 88.0417 117.625 88.0417C115.717 88.0417 113.925 88.6316 112.443 89.7502C111.359 90.5664 111.145 92.1102 111.961 93.1919C112.78 94.2735 114.319 94.4923 115.405 93.6712C116.034 93.1968 116.782 92.9559 117.625 92.9559C119.417 92.9559 120.477 94.303 120.55 94.3989C121.03 95.0627 121.78 95.4142 122.544 95.4142C123.033 95.4142 123.527 95.2667 123.958 94.9643V94.9692ZM117.625 64.6899C117.625 66.7254 119.277 68.3774 121.313 68.3774C123.348 68.3774 125 66.7254 125 64.6899C125 62.6544 123.348 61.0024 121.313 61.0024C119.277 61.0024 117.625 62.6544 117.625 64.6899ZM112.708 76.9816C112.708 79.0171 114.36 80.6691 116.396 80.6691C118.431 80.6691 120.083 79.0171 120.083 76.9816C120.083 74.9461 118.431 73.2941 116.396 73.2941C114.36 73.2941 112.708 74.9461 112.708 76.9816ZM85.6667 67.1458C85.6667 69.1813 87.3187 70.8333 89.3542 70.8333C91.3897 70.8333 93.0417 69.1813 93.0417 67.1458C93.0417 65.1103 91.3897 63.4583 89.3542 63.4583C87.3187 63.4583 85.6667 65.1103 85.6667 67.1458ZM115.167 106.479C115.167 108.515 116.819 110.167 118.854 110.167C120.89 110.167 122.542 108.515 122.542 106.479C122.542 104.444 120.89 102.792 118.854 102.792C116.819 102.792 115.167 104.444 115.167 106.479ZM68.4584 69.6042C68.4584 71.6397 70.1104 73.2917 72.1459 73.2917C74.1814 73.2917 75.8334 71.6397 75.8334 69.6042C75.8334 67.5687 74.1814 65.9166 72.1459 65.9166C70.1104 65.9166 68.4584 67.5687 68.4584 69.6042ZM102.875 116.312C102.875 118.348 104.527 120 106.563 120C108.598 120 110.25 118.348 110.25 116.312C110.25 114.277 108.598 112.625 106.563 112.625C104.527 112.625 102.875 114.277 102.875 116.312Z" fill="white"/>
</g>
<circle cx="178.467" cy="27.5" r="7.5" fill="url(#paint1_linear_135_282)"/>
<circle cx="20.0334" cy="10" r="10" fill="url(#paint2_linear_135_282)"/>
<circle cx="10.0334" cy="133" r="5" fill="url(#paint3_linear_135_282)"/>
<circle cx="165.533" cy="160.5" r="2.5" fill="url(#paint4_linear_135_282)"/>
<circle cx="106.5" cy="2.5" r="2.5" fill="url(#paint5_linear_135_282)"/>
<circle cx="62.5334" cy="176.5" r="3.5" fill="url(#paint6_linear_135_282)"/>
<circle cx="122.033" cy="171" r="1" fill="url(#paint7_linear_135_282)"/>
<circle cx="170.533" cy="110.5" r="2.5" fill="url(#paint8_linear_135_282)"/>
<circle cx="1.03345" cy="75" r="1" fill="url(#paint9_linear_135_282)"/>
<defs>
<linearGradient id="paint0_linear_135_282" x1="38.5" y1="43" x2="161.239" y2="63.7726" gradientUnits="userSpaceOnUse">
<stop stop-color="#1E30F3"/>
<stop offset="1" stop-color="#E21E80"/>
</linearGradient>
<linearGradient id="paint1_linear_135_282" x1="167" y1="16.7411" x2="190.917" y2="19.451" gradientUnits="userSpaceOnUse">
<stop stop-color="#1E30F3"/>
<stop offset="1" stop-color="#E21E80"/>
</linearGradient>
<linearGradient id="paint2_linear_135_282" x1="4" y1="-5.08997" x2="41.3726" y2="-0.85546" gradientUnits="userSpaceOnUse">
<stop stop-color="#1E30F3"/>
<stop offset="1" stop-color="#E21E80"/>
</linearGradient>
<linearGradient id="paint3_linear_135_282" x1="3" y1="123.5" x2="22.1495" y2="130.795" gradientUnits="userSpaceOnUse">
<stop stop-color="#1E30F3"/>
<stop offset="1" stop-color="#E21E80"/>
</linearGradient>
<linearGradient id="paint4_linear_135_282" x1="162" y1="158" x2="170.28" y2="159.223" gradientUnits="userSpaceOnUse">
<stop stop-color="#1E30F3"/>
<stop offset="1" stop-color="#E21E80"/>
</linearGradient>
<linearGradient id="paint5_linear_135_282" x1="100.5" y1="-2" x2="111.335" y2="0.094432" gradientUnits="userSpaceOnUse">
<stop stop-color="#1E30F3"/>
<stop offset="1" stop-color="#E21E80"/>
</linearGradient>
<linearGradient id="paint6_linear_135_282" x1="59" y1="173" x2="68.5728" y2="173.899" gradientUnits="userSpaceOnUse">
<stop stop-color="#1E30F3"/>
<stop offset="1" stop-color="#E21E80"/>
</linearGradient>
<linearGradient id="paint7_linear_135_282" x1="121" y1="169.5" x2="124.138" y2="170.5" gradientUnits="userSpaceOnUse">
<stop stop-color="#1E30F3"/>
<stop offset="1" stop-color="#E21E80"/>
</linearGradient>
<linearGradient id="paint8_linear_135_282" x1="168" y1="108" x2="174.275" y2="110.001" gradientUnits="userSpaceOnUse">
<stop stop-color="#1E30F3"/>
<stop offset="1" stop-color="#E21E80"/>
</linearGradient>
<linearGradient id="paint9_linear_135_282" x1="0.484194" y1="74.5451" x2="1.66499" y2="74.6789" gradientUnits="userSpaceOnUse">
<stop stop-color="#1E30F3"/>
<stop offset="1" stop-color="#E21E80"/>
</linearGradient>
<clipPath id="clip0_135_282">
<rect width="59" height="59" fill="white" transform="translate(66 61)"/>
</clipPath>
</defs>
</svg>
