<svg width="16" height="17" viewBox="0 0 16 17" fill="none" xmlns="http://www.w3.org/2000/svg">
<g id="Group">
<path id="Exclude" fill-rule="evenodd" clip-rule="evenodd" d="M12.6022 4.6633V5.94108C14.0375 6.38909 15.0833 7.68841 15.0833 9.2403V13.3544C15.0833 15.2756 13.4905 16.8333 11.5268 16.8333H4.47396C2.50942 16.8333 0.916626 15.2756 0.916626 13.3544V9.2403C0.916626 7.68841 1.96325 6.38909 3.3977 5.94108V4.6633C3.40617 2.17895 5.46385 0.166626 7.98726 0.166626C10.5445 0.166626 12.6022 2.17895 12.6022 4.6633ZM8.00419 1.61583C9.72316 1.61583 11.1204 2.98222 11.1204 4.6633V5.76138H4.87957V4.64673C4.88803 2.97394 6.28522 1.61583 8.00419 1.61583ZM8.74089 12.2124C8.74089 12.6182 8.41065 12.9411 7.99573 12.9411C7.58927 12.9411 7.25902 12.6182 7.25902 12.2124V10.374C7.25902 9.97649 7.58927 9.65353 7.99573 9.65353C8.41065 9.65353 8.74089 9.97649 8.74089 10.374V12.2124Z" fill="#9E9E9E"/>
</g>
</svg>
