<svg width="70" height="75" viewBox="0 0 70 75" fill="none" xmlns="http://www.w3.org/2000/svg">
<g id="Group 34825">
<path id="Vector" d="M25.4661 0.891113C24.7076 0.891987 24.0929 1.51202 24.092 2.27712V26.5648C24.0929 27.3299 24.7076 27.9499 25.4661 27.9508H59.5251C60.2836 27.9499 60.8983 27.3299 60.8991 26.5648V2.27712C60.8983 1.51202 60.2836 0.891984 59.5251 0.891113H25.4661Z" fill="#E6E6E6"/>
<path id="Vector_2" d="M47.2764 26.7685H26.4288C25.6124 26.7676 24.9508 26.1002 24.95 25.2768V3.24808C24.9508 2.42461 25.6124 1.75728 26.4288 1.75635H58.5632C59.3796 1.75727 60.0412 2.4246 60.0421 3.24808V13.8921C60.0341 21.0002 54.3234 26.7604 47.2764 26.7685V26.7685Z" fill="url(#paint0_linear_20_3575)"/>
<path id="Vector_3" d="M39.1098 7.85283H34.1557C33.8944 7.85283 33.6826 7.63918 33.6826 7.37563C33.6826 7.11209 33.8944 6.89844 34.1557 6.89844H39.1098C39.371 6.89844 39.5829 7.11209 39.5829 7.37563C39.5829 7.63918 39.371 7.85283 39.1098 7.85283H39.1098Z" fill="#E6E6E6"/>
<path id="Vector_4" d="M50.2152 9.80449H34.1557C33.8944 9.80449 33.6826 9.59084 33.6826 9.32729C33.6826 9.06375 33.8944 8.8501 34.1557 8.8501H50.2152C50.4765 8.8501 50.6883 9.06375 50.6883 9.32729C50.6883 9.59084 50.4765 9.80449 50.2152 9.80449Z" fill="#E6E6E6"/>
<path id="Vector_5" d="M50.2152 12.0447H34.1557C33.8944 12.0447 33.6826 11.8311 33.6826 11.5675C33.6826 11.304 33.8944 11.0903 34.1557 11.0903H50.2152C50.4765 11.0903 50.6883 11.304 50.6883 11.5675C50.6883 11.8311 50.4765 12.0447 50.2152 12.0447Z" fill="#E6E6E6"/>
<path id="Vector_6" d="M50.2152 14.2852H34.1557C33.8944 14.2852 33.6826 14.0716 33.6826 13.808C33.6826 13.5445 33.8944 13.3308 34.1557 13.3308H50.2152C50.4765 13.3308 50.6883 13.5445 50.6883 13.808C50.6883 14.0716 50.4765 14.2852 50.2152 14.2852Z" fill="#E6E6E6"/>
<path id="Vector_7" d="M50.2152 16.5257H34.1557C33.8944 16.5257 33.6826 16.312 33.6826 16.0485C33.6826 15.7849 33.8944 15.5713 34.1557 15.5713H50.2152C50.4765 15.5713 50.6883 15.7849 50.6883 16.0485C50.6883 16.312 50.4765 16.5257 50.2152 16.5257Z" fill="#E6E6E6"/>
<path id="Vector_8" d="M23.5199 11.7542C22.6747 11.7551 21.9898 12.446 21.9888 13.2986V40.3619C21.9898 41.2144 22.6747 41.9053 23.5199 41.9063H61.4713C62.3165 41.9053 63.0014 41.2144 63.0023 40.3619V13.2986C63.0014 12.446 62.3165 11.7551 61.4713 11.7542H23.5199Z" fill="#E6E6E6"/>
<path id="Vector_9" d="M47.8228 40.5891H24.5927C23.683 40.5881 22.9458 39.8445 22.9448 38.9269V14.3807C22.9458 13.4631 23.683 12.7195 24.5927 12.7185H60.3995C61.3092 12.7195 62.0464 13.4631 62.0474 14.3807V26.2412C62.0386 34.1616 55.6752 40.5801 47.8228 40.5891V40.5891Z" fill="url(#paint1_linear_20_3575)"/>
<path id="Vector_10" d="M38.7228 19.5117H33.2025C32.9114 19.5117 32.6754 19.2736 32.6754 18.98C32.6754 18.6863 32.9114 18.4482 33.2025 18.4482H38.7228C39.0139 18.4482 39.25 18.6863 39.25 18.98C39.25 19.2736 39.0139 19.5117 38.7228 19.5117H38.7228Z" fill="#E6E6E6"/>
<path id="Vector_11" d="M51.0974 21.6865H33.2025C32.9114 21.6865 32.6754 21.4484 32.6754 21.1548C32.6754 20.8611 32.9114 20.623 33.2025 20.623H51.0974C51.3886 20.623 51.6246 20.8611 51.6246 21.1548C51.6246 21.4484 51.3886 21.6865 51.0974 21.6865Z" fill="#E6E6E6"/>
<path id="Vector_12" d="M51.0974 24.1829H33.2025C32.9114 24.1829 32.6754 23.9448 32.6754 23.6511C32.6754 23.3574 32.9114 23.1194 33.2025 23.1194H51.0974C51.3886 23.1194 51.6246 23.3574 51.6246 23.6511C51.6246 23.9448 51.3886 24.1829 51.0974 24.1829Z" fill="#E6E6E6"/>
<path id="Vector_13" d="M51.0974 26.6792H33.2025C32.9114 26.6792 32.6754 26.4411 32.6754 26.1475C32.6754 25.8538 32.9114 25.6157 33.2025 25.6157H51.0974C51.3886 25.6157 51.6246 25.8538 51.6246 26.1475C51.6246 26.4411 51.3886 26.6792 51.0974 26.6792Z" fill="#E6E6E6"/>
<path id="Vector_14" d="M51.0974 29.1755H33.2025C32.9114 29.1755 32.6754 28.9375 32.6754 28.6438C32.6754 28.3501 32.9114 28.1121 33.2025 28.1121H51.0974C51.3886 28.1121 51.6246 28.3501 51.6246 28.6438C51.6246 28.9375 51.3886 29.1755 51.0974 29.1755Z" fill="#E6E6E6"/>
<path id="Vector_15" d="M65.4457 30.6493H57.9543C56.4645 30.6493 55.2568 31.8675 55.2568 33.3702C55.2568 34.8729 54.0491 36.0911 52.5593 36.0911H27.584C26.0942 36.0911 24.8864 34.8729 24.8864 33.3702V33.3702L24.3926 30.6119L24.4247 30.6493L24.3926 30.6119L19.8654 24.7903C19.5649 24.3975 19.0993 24.1694 18.6074 24.1739H10.1173C9.23475 24.175 8.51958 24.8963 8.51853 25.7865L8.34322 30.6119H5.1335C2.29835 30.6119 0 32.9302 0 35.7899V69.514C0 72.0518 2.03959 74.1091 4.55556 74.1091H65.4457C67.9602 74.1059 69.9976 72.0503 70 69.514V35.2431C70 32.706 67.961 30.6493 65.4457 30.6493H65.4457Z" fill="#E6E6E6"/>
<path id="Vector_16" d="M24.3953 30.4872H8.5188V25.6618C8.51985 24.7716 9.23503 24.0502 10.1176 24.0491H18.6077C19.0996 24.0447 19.5652 24.2728 19.8657 24.6655L24.3953 30.4872V30.4872Z" fill="#CCCCCC"/>
<g id="Group 34824">
<path id="Vector_17" d="M32.5237 70.3981H6.01396C4.26672 70.3961 2.85079 68.9679 2.84882 67.2055V59.8928C2.85079 58.1304 4.26672 56.7022 6.01396 56.7002H37.8318C39.5791 56.7022 40.995 58.1304 40.997 59.8928V61.8514C40.9917 66.5694 37.2011 70.3928 32.5237 70.3981Z" fill="url(#paint2_linear_20_3575)"/>
<path id="Vector_18" d="M13.6456 62.2165H7.10243C6.21605 62.2165 5.4975 61.4917 5.4975 60.5976C5.4975 59.7035 6.21605 58.9788 7.10243 58.9788H13.6456C14.532 58.9776 15.2515 59.7015 15.2527 60.5955C15.2538 61.4896 14.5362 62.2153 13.6498 62.2165H13.6457H13.6456Z" fill="#E6E6E6"/>
<path id="Vector_19" d="M35.8679 67.3222H7.10243C6.21605 67.3222 5.4975 66.5974 5.4975 65.7033C5.4975 64.8093 6.21605 64.0845 7.10243 64.0845H35.8679C36.7542 64.0833 37.4737 64.8072 37.4749 65.7012C37.476 66.5953 36.7584 67.321 35.872 67.3222H35.8679L35.8679 67.3222Z" fill="#E6E6E6"/>
</g>
</g>
<defs>
<linearGradient id="paint0_linear_20_3575" x1="25.7511" y1="2.50057" x2="65.4399" y2="17.8942" gradientUnits="userSpaceOnUse">
<stop stop-color="#1E30F3"/>
<stop offset="1" stop-color="#E21E80"/>
</linearGradient>
<linearGradient id="paint1_linear_20_3575" x1="22.5326" y1="12.1574" x2="66.4941" y2="21.8925" gradientUnits="userSpaceOnUse">
<stop stop-color="#1E30F3"/>
<stop offset="1" stop-color="#E21E80"/>
</linearGradient>
<linearGradient id="paint2_linear_20_3575" x1="3.21896" y1="57.2222" x2="45.5521" y2="71.0686" gradientUnits="userSpaceOnUse">
<stop stop-color="#1E30F3"/>
<stop offset="1" stop-color="#E21E80"/>
</linearGradient>
</defs>
</svg>
