<svg width="55" height="57" viewBox="0 0 55 57" fill="none" xmlns="http://www.w3.org/2000/svg">
<g id="Vector">
<path fill-rule="evenodd" clip-rule="evenodd" d="M27.5 39.8318C28.6391 39.8318 29.5625 38.9093 29.5625 37.7715V7.62969L34.184 13.0156C34.9253 13.8795 36.2274 13.9796 37.0923 13.2391C37.9571 12.4986 38.0573 11.1979 37.316 10.334L29.066 0.719462C28.6741 0.262812 28.1021 0 27.5 0C26.8979 0 26.3259 0.262812 25.934 0.719462L17.684 10.334C16.9427 11.1979 17.0429 12.4986 17.9077 13.2391C18.7726 13.9796 20.0747 13.8795 20.816 13.0156L25.4375 7.62969L25.4375 37.7715C25.4375 38.9093 26.3609 39.8318 27.5 39.8318Z" fill="white"/>
<path d="M38.5 21.2894C36.569 21.2894 35.6035 21.2894 34.9099 21.7523C34.6095 21.9527 34.3517 22.2103 34.151 22.5103C33.6876 23.2032 33.6876 24.1676 33.6876 26.0966L33.6876 37.7715C33.6876 41.1851 30.9174 43.9523 27.5001 43.9523C24.0828 43.9523 21.3126 41.1851 21.3126 37.7715L21.3126 26.0968C21.3126 24.1676 21.3126 23.2031 20.8491 22.5102C20.6485 22.2103 20.3907 21.9528 20.0905 21.7524C19.3969 21.2894 18.4312 21.2894 16.5 21.2894C8.72183 21.2894 4.83274 21.2894 2.41637 23.7031C0 26.1169 0 30.0011 0 37.7709V40.5179C0 48.2876 0 52.1725 2.41637 54.5863C4.83274 57 8.72183 57 16.5 57H38.5C46.2781 57 50.1673 57 52.5836 54.5863C55 52.1725 55 48.2876 55 40.5179V37.7709C55 30.0012 55 26.1169 52.5836 23.7031C50.1673 21.2894 46.2782 21.2894 38.5 21.2894Z" fill="white"/>
</g>
</svg>
