<svg width="31" height="32" viewBox="0 0 31 32" fill="none" xmlns="http://www.w3.org/2000/svg">
<g id="whatsapp 1" clip-path="url(#clip0_20_3922)">
<g id="WA_Logo">
<g id="Group">
<path id="Vector" fill-rule="evenodd" clip-rule="evenodd" d="M26.4107 5.42428C23.5279 2.53887 19.6952 0.948549 15.6122 0.947266C7.19857 0.947266 0.350833 7.79372 0.346983 16.2112C0.345699 18.9016 1.04908 21.5277 2.38526 23.8432L0.218628 31.7524L8.31012 29.6295C10.5396 30.8463 13.0503 31.4867 15.6045 31.488H15.6109C24.0233 31.488 30.8723 24.6403 30.8762 16.2228C30.8788 12.1449 29.2923 8.30842 26.4107 5.42428ZM15.6122 28.9094H15.6071C13.3301 28.9094 11.098 28.2971 9.14956 27.1407L8.6862 26.866L3.88444 28.1251L5.16671 23.4427L4.86508 22.9627C3.59436 20.9424 2.92435 18.6076 2.92563 16.2112C2.9282 9.21589 8.62074 3.52463 15.6186 3.52463C19.0072 3.52463 22.193 4.84669 24.5881 7.24436C26.9832 9.64331 28.3014 12.8304 28.3001 16.2202C28.2963 23.2181 22.605 28.9094 15.6122 28.9094ZM22.5716 19.4073C22.1904 19.216 20.3152 18.2931 19.9647 18.1661C19.6156 18.039 19.3615 17.9748 19.1061 18.356C18.8506 18.7373 18.1216 19.5972 17.8982 19.8527C17.6762 20.1068 17.4528 20.1389 17.0716 19.9476C16.6904 19.7564 15.4608 19.3546 14.0039 18.0544C12.8706 17.043 12.1043 15.7941 11.8822 15.4116C11.6602 15.0291 11.8591 14.8237 12.0491 14.6337C12.2211 14.463 12.4303 14.1884 12.6216 13.965C12.8141 13.7443 12.877 13.5851 13.0053 13.3297C13.1324 13.0755 13.0695 12.8522 12.9733 12.6609C12.877 12.471 12.1146 10.5931 11.7975 9.82942C11.4882 9.08497 11.1737 9.18637 10.9388 9.17482C10.7168 9.16326 10.4626 9.16198 10.2072 9.16198C9.95306 9.16198 9.53976 9.25696 9.19064 9.63946C8.84151 10.022 7.85574 10.9448 7.85574 12.8214C7.85574 14.6992 9.22272 16.5129 9.41269 16.767C9.60265 17.0212 12.1017 20.8744 15.928 22.5263C16.838 22.9191 17.5491 23.1539 18.1023 23.3298C19.0162 23.6199 19.8479 23.5788 20.5051 23.4813C21.238 23.3722 22.7616 22.5584 23.0799 21.6676C23.3982 20.7768 23.3982 20.0118 23.302 19.8539C23.207 19.6935 22.9529 19.5985 22.5716 19.4073Z" fill="white"/>
</g>
</g>
</g>
<defs>
<clipPath id="clip0_20_3922">
<rect width="30.8052" height="30.8052" fill="white" transform="translate(0.146118 0.947266)"/>
</clipPath>
</defs>
</svg>
